<svg id="visual" viewBox="0 0 900 100" width="900" height="100" xmlns="http://www.w3.org/2000/svg" xmlns:xlink="http://www.w3.org/1999/xlink" version="1.1"><rect x="0" y="0" width="900" height="100" fill="#202731"></rect><path d="M0 69L21.5 70.7C43 72.3 86 75.7 128.8 73.8C171.7 72 214.3 65 257.2 61.3C300 57.7 343 57.3 385.8 57.5C428.7 57.7 471.3 58.3 514.2 58.5C557 58.7 600 58.3 642.8 58.2C685.7 58 728.3 58 771.2 58.5C814 59 857 60 878.5 60.5L900 61L900 0L878.5 0C857 0 814 0 771.2 0C728.3 0 685.7 0 642.8 0C600 0 557 0 514.2 0C471.3 0 428.7 0 385.8 0C343 0 300 0 257.2 0C214.3 0 171.7 0 128.8 0C86 0 43 0 21.5 0L0 0Z" fill="#415474"></path><path d="M0 55L21.5 55C43 55 86 55 128.8 56.2C171.7 57.3 214.3 59.7 257.2 58C300 56.3 343 50.7 385.8 50.8C428.7 51 471.3 57 514.2 60.3C557 63.7 600 64.3 642.8 63.3C685.7 62.3 728.3 59.7 771.2 59.3C814 59 857 61 878.5 62L900 63L900 0L878.5 0C857 0 814 0 771.2 0C728.3 0 685.7 0 642.8 0C600 0 557 0 514.2 0C471.3 0 428.7 0 385.8 0C343 0 300 0 257.2 0C214.3 0 171.7 0 128.8 0C86 0 43 0 21.5 0L0 0Z" fill="#384862"></path><path d="M0 48L21.5 48.2C43 48.3 86 48.7 128.8 48.5C171.7 48.3 214.3 47.7 257.2 47.7C300 47.7 343 48.3 385.8 46.5C428.7 44.7 471.3 40.3 514.2 37.5C557 34.7 600 33.3 642.8 32.5C685.7 31.7 728.3 31.3 771.2 32C814 32.7 857 34.3 878.5 35.2L900 36L900 0L878.5 0C857 0 814 0 771.2 0C728.3 0 685.7 0 642.8 0C600 0 557 0 514.2 0C471.3 0 428.7 0 385.8 0C343 0 300 0 257.2 0C214.3 0 171.7 0 128.8 0C86 0 43 0 21.5 0L0 0Z" fill="#2f3d51"></path><path d="M0 19L21.5 19.3C43 19.7 86 20.3 128.8 23.5C171.7 26.7 214.3 32.3 257.2 33.8C300 35.3 343 32.7 385.8 31.3C428.7 30 471.3 30 514.2 28.8C557 27.7 600 25.3 642.8 25.8C685.7 26.3 728.3 29.7 771.2 32C814 34.3 857 35.7 878.5 36.3L900 37L900 0L878.5 0C857 0 814 0 771.2 0C728.3 0 685.7 0 642.8 0C600 0 557 0 514.2 0C471.3 0 428.7 0 385.8 0C343 0 300 0 257.2 0C214.3 0 171.7 0 128.8 0C86 0 43 0 21.5 0L0 0Z" fill="#273241"></path><path d="M0 17L21.5 15.5C43 14 86 11 128.8 10.3C171.7 9.7 214.3 11.3 257.2 13.5C300 15.7 343 18.3 385.8 19C428.7 19.7 471.3 18.3 514.2 17.2C557 16 600 15 642.8 15.7C685.7 16.3 728.3 18.7 771.2 18.3C814 18 857 15 878.5 13.5L900 12L900 0L878.5 0C857 0 814 0 771.2 0C728.3 0 685.7 0 642.8 0C600 0 557 0 514.2 0C471.3 0 428.7 0 385.8 0C343 0 300 0 257.2 0C214.3 0 171.7 0 128.8 0C86 0 43 0 21.5 0L0 0Z" fill="#202731"></path></svg>