<svg id="visual" viewBox="0 0 900 200" width="900" height="200" xmlns="http://www.w3.org/2000/svg" xmlns:xlink="http://www.w3.org/1999/xlink" version="1.1"><rect x="0" y="0" width="900" height="200" fill="#4b556b"></rect><path d="M0 95L13.7 89.2C27.3 83.3 54.7 71.7 82 74.5C109.3 77.3 136.7 94.7 163.8 93.8C191 93 218 74 245.2 67.3C272.3 60.7 299.7 66.3 327 74.8C354.3 83.3 381.7 94.7 409 93.5C436.3 92.3 463.7 78.7 491 74.3C518.3 70 545.7 75 573 82.5C600.3 90 627.7 100 654.8 100.8C682 101.7 709 93.3 736.2 89.2C763.3 85 790.7 85 818 80.8C845.3 76.7 872.7 68.3 886.3 64.2L900 60L900 201L886.3 201C872.7 201 845.3 201 818 201C790.7 201 763.3 201 736.2 201C709 201 682 201 654.8 201C627.7 201 600.3 201 573 201C545.7 201 518.3 201 491 201C463.7 201 436.3 201 409 201C381.7 201 354.3 201 327 201C299.7 201 272.3 201 245.2 201C218 201 191 201 163.8 201C136.7 201 109.3 201 82 201C54.7 201 27.3 201 13.7 201L0 201Z" fill="#031226"></path><path d="M0 112L13.7 107.2C27.3 102.3 54.7 92.7 82 96.5C109.3 100.3 136.7 117.7 163.8 123.7C191 129.7 218 124.3 245.2 123.5C272.3 122.7 299.7 126.3 327 123.3C354.3 120.3 381.7 110.7 409 111.3C436.3 112 463.7 123 491 123C518.3 123 545.7 112 573 111.5C600.3 111 627.7 121 654.8 122C682 123 709 115 736.2 115.3C763.3 115.7 790.7 124.3 818 122.2C845.3 120 872.7 107 886.3 100.5L900 94L900 201L886.3 201C872.7 201 845.3 201 818 201C790.7 201 763.3 201 736.2 201C709 201 682 201 654.8 201C627.7 201 600.3 201 573 201C545.7 201 518.3 201 491 201C463.7 201 436.3 201 409 201C381.7 201 354.3 201 327 201C299.7 201 272.3 201 245.2 201C218 201 191 201 163.8 201C136.7 201 109.3 201 82 201C54.7 201 27.3 201 13.7 201L0 201Z" fill="#131c2d"></path><path d="M0 154L13.7 149.5C27.3 145 54.7 136 82 134.8C109.3 133.7 136.7 140.3 163.8 145C191 149.7 218 152.3 245.2 148.2C272.3 144 299.7 133 327 133.2C354.3 133.3 381.7 144.7 409 144.2C436.3 143.7 463.7 131.3 491 130C518.3 128.7 545.7 138.3 573 143.3C600.3 148.3 627.7 148.7 654.8 144.2C682 139.7 709 130.3 736.2 125C763.3 119.7 790.7 118.3 818 117.5C845.3 116.7 872.7 116.3 886.3 116.2L900 116L900 201L886.3 201C872.7 201 845.3 201 818 201C790.7 201 763.3 201 736.2 201C709 201 682 201 654.8 201C627.7 201 600.3 201 573 201C545.7 201 518.3 201 491 201C463.7 201 436.3 201 409 201C381.7 201 354.3 201 327 201C299.7 201 272.3 201 245.2 201C218 201 191 201 163.8 201C136.7 201 109.3 201 82 201C54.7 201 27.3 201 13.7 201L0 201Z" fill="#202635"></path><path d="M0 160L13.7 159.3C27.3 158.7 54.7 157.3 82 156C109.3 154.7 136.7 153.3 163.8 152.8C191 152.3 218 152.7 245.2 156.8C272.3 161 299.7 169 327 169.7C354.3 170.3 381.7 163.7 409 159.8C436.3 156 463.7 155 491 153.3C518.3 151.7 545.7 149.3 573 149.7C600.3 150 627.7 153 654.8 154.8C682 156.7 709 157.3 736.2 158C763.3 158.7 790.7 159.3 818 158.8C845.3 158.3 872.7 156.7 886.3 155.8L900 155L900 201L886.3 201C872.7 201 845.3 201 818 201C790.7 201 763.3 201 736.2 201C709 201 682 201 654.8 201C627.7 201 600.3 201 573 201C545.7 201 518.3 201 491 201C463.7 201 436.3 201 409 201C381.7 201 354.3 201 327 201C299.7 201 272.3 201 245.2 201C218 201 191 201 163.8 201C136.7 201 109.3 201 82 201C54.7 201 27.3 201 13.7 201L0 201Z" fill="#2d313d"></path></svg>