<svg id="visual" viewBox="0 0 900 200" width="900" height="200" xmlns="http://www.w3.org/2000/svg" xmlns:xlink="http://www.w3.org/1999/xlink" version="1.1"><rect x="0" y="0" width="900" height="200" fill="#202731"></rect><path d="M0 58L21.5 54.8C43 51.7 86 45.3 128.8 49C171.7 52.7 214.3 66.3 257.2 73.8C300 81.3 343 82.7 385.8 82.7C428.7 82.7 471.3 81.3 514.2 80.8C557 80.3 600 80.7 642.8 80.7C685.7 80.7 728.3 80.3 771.2 79.3C814 78.3 857 76.7 878.5 75.8L900 75L900 201L878.5 201C857 201 814 201 771.2 201C728.3 201 685.7 201 642.8 201C600 201 557 201 514.2 201C471.3 201 428.7 201 385.8 201C343 201 300 201 257.2 201C214.3 201 171.7 201 128.8 201C86 201 43 201 21.5 201L0 201Z" fill="#1f2b3f"></path><path d="M0 87L21.5 86.8C43 86.7 86 86.3 128.8 83.8C171.7 81.3 214.3 76.7 257.2 80.2C300 83.7 343 95.3 385.8 95.3C428.7 95.3 471.3 83.7 514.2 76.8C557 70 600 68 642.8 70C685.7 72 728.3 78 771.2 79C814 80 857 76 878.5 74L900 72L900 201L878.5 201C857 201 814 201 771.2 201C728.3 201 685.7 201 642.8 201C600 201 557 201 514.2 201C471.3 201 428.7 201 385.8 201C343 201 300 201 257.2 201C214.3 201 171.7 201 128.8 201C86 201 43 201 21.5 201L0 201Z" fill="#162644"></path><path d="M0 100L21.5 100C43 100 86 100 128.8 100.7C171.7 101.3 214.3 102.7 257.2 102.3C300 102 343 100 385.8 103.3C428.7 106.7 471.3 115.3 514.2 121.2C557 127 600 130 642.8 131.7C685.7 133.3 728.3 133.7 771.2 132.3C814 131 857 128 878.5 126.5L900 125L900 201L878.5 201C857 201 814 201 771.2 201C728.3 201 685.7 201 642.8 201C600 201 557 201 514.2 201C471.3 201 428.7 201 385.8 201C343 201 300 201 257.2 201C214.3 201 171.7 201 128.8 201C86 201 43 201 21.5 201L0 201Z" fill="#0f2048"></path><path d="M0 159L21.5 158.3C43 157.7 86 156.3 128.8 149.8C171.7 143.3 214.3 131.7 257.2 128.8C300 126 343 132 385.8 134.8C428.7 137.7 471.3 137.3 514.2 139.7C557 142 600 147 642.8 145.8C685.7 144.7 728.3 137.3 771.2 132.7C814 128 857 126 878.5 125L900 124L900 201L878.5 201C857 201 814 201 771.2 201C728.3 201 685.7 201 642.8 201C600 201 557 201 514.2 201C471.3 201 428.7 201 385.8 201C343 201 300 201 257.2 201C214.3 201 171.7 201 128.8 201C86 201 43 201 21.5 201L0 201Z" fill="#0d194a"></path><path d="M0 163L21.5 166C43 169 86 175 128.8 176.3C171.7 177.7 214.3 174.3 257.2 170.2C300 166 343 161 385.8 159.8C428.7 158.7 471.3 161.3 514.2 163.5C557 165.7 600 167.3 642.8 166C685.7 164.7 728.3 160.3 771.2 161.2C814 162 857 168 878.5 171L900 174L900 201L878.5 201C857 201 814 201 771.2 201C728.3 201 685.7 201 642.8 201C600 201 557 201 514.2 201C471.3 201 428.7 201 385.8 201C343 201 300 201 257.2 201C214.3 201 171.7 201 128.8 201C86 201 43 201 21.5 201L0 201Z" fill="#12104b"></path></svg>