<svg id="visual" viewBox="0 0 900 200" width="900" height="200" xmlns="http://www.w3.org/2000/svg" xmlns:xlink="http://www.w3.org/1999/xlink" version="1.1"><rect x="0" y="0" width="900" height="200" fill="#0f1930"></rect><path d="M0 140L21.5 143.2C43 146.3 86 152.7 128.8 149C171.7 145.3 214.3 131.7 257.2 124.2C300 116.7 343 115.3 385.8 115.3C428.7 115.3 471.3 116.7 514.2 117.2C557 117.7 600 117.3 642.8 117.3C685.7 117.3 728.3 117.7 771.2 118.7C814 119.7 857 121.3 878.5 122.2L900 123L900 0L878.5 0C857 0 814 0 771.2 0C728.3 0 685.7 0 642.8 0C600 0 557 0 514.2 0C471.3 0 428.7 0 385.8 0C343 0 300 0 257.2 0C214.3 0 171.7 0 128.8 0C86 0 43 0 21.5 0L0 0Z" fill="#243b64"></path><path d="M0 111L21.5 111.2C43 111.3 86 111.7 128.8 114.2C171.7 116.7 214.3 121.3 257.2 117.8C300 114.3 343 102.7 385.8 102.7C428.7 102.7 471.3 114.3 514.2 121.2C557 128 600 130 642.8 128C685.7 126 728.3 120 771.2 119C814 118 857 122 878.5 124L900 126L900 0L878.5 0C857 0 814 0 771.2 0C728.3 0 685.7 0 642.8 0C600 0 557 0 514.2 0C471.3 0 428.7 0 385.8 0C343 0 300 0 257.2 0C214.3 0 171.7 0 128.8 0C86 0 43 0 21.5 0L0 0Z" fill="#1c315f"></path><path d="M0 98L21.5 98C43 98 86 98 128.8 97.3C171.7 96.7 214.3 95.3 257.2 95.7C300 96 343 98 385.8 94.7C428.7 91.3 471.3 82.7 514.2 76.8C557 71 600 68 642.8 66.3C685.7 64.7 728.3 64.3 771.2 65.7C814 67 857 70 878.5 71.5L900 73L900 0L878.5 0C857 0 814 0 771.2 0C728.3 0 685.7 0 642.8 0C600 0 557 0 514.2 0C471.3 0 428.7 0 385.8 0C343 0 300 0 257.2 0C214.3 0 171.7 0 128.8 0C86 0 43 0 21.5 0L0 0Z" fill="#172659"></path><path d="M0 39L21.5 39.7C43 40.3 86 41.7 128.8 48.2C171.7 54.7 214.3 66.3 257.2 69.2C300 72 343 66 385.8 63.2C428.7 60.3 471.3 60.7 514.2 58.3C557 56 600 51 642.8 52.2C685.7 53.3 728.3 60.7 771.2 65.3C814 70 857 72 878.5 73L900 74L900 0L878.5 0C857 0 814 0 771.2 0C728.3 0 685.7 0 642.8 0C600 0 557 0 514.2 0C471.3 0 428.7 0 385.8 0C343 0 300 0 257.2 0C214.3 0 171.7 0 128.8 0C86 0 43 0 21.5 0L0 0Z" fill="#141b52"></path><path d="M0 35L21.5 32C43 29 86 23 128.8 21.7C171.7 20.3 214.3 23.7 257.2 27.8C300 32 343 37 385.8 38.2C428.7 39.3 471.3 36.7 514.2 34.5C557 32.3 600 30.7 642.8 32C685.7 33.3 728.3 37.7 771.2 36.8C814 36 857 30 878.5 27L900 24L900 0L878.5 0C857 0 814 0 771.2 0C728.3 0 685.7 0 642.8 0C600 0 557 0 514.2 0C471.3 0 428.7 0 385.8 0C343 0 300 0 257.2 0C214.3 0 171.7 0 128.8 0C86 0 43 0 21.5 0L0 0Z" fill="#12104b"></path></svg>